# xmcd CD database file
#
# Track frame offsets:
#	150
#	15963
#	33304
#	47940
#	67452
#	82468
#	118037
#	130518
#	149857
#	158982
#	167925
#	184352
#	197924
#	213930
#	225695
#	240009
#	249826
#	268883
#	280681
#
# Disc length: 3899 seconds
#
# Revision: 0
# Processed by: cddbd v1.5.2PL0 Copyright (c) Steve Scherf et al.
# Submitted via: CDex 1.51
#
DISCID=1e0f3913
DTITLE=Lewis, Ramsey - Complete Recordings 1960-1962, CD2
DYEAR=1900
DGENRE=Jazz
TTITLE0=Around The World In 80 Days
TTITLE1=Since I Fell For You
TTITLE2=Hello Cello
TTITLE3=I'll Wait For Your Love
TTITLE4=Volga Boatman
TTITLE5=Blues For The Night Owl
TTITLE6=Smoke Gets In Your Eyes
TTITLE7=Autumn In New York
TTITLE8=Gonna Set Your Soul On Fire
TTITLE9=The Ripper
TTITLE10=I Got Plenty Of Nothing
TTITLE11=Waterboy
TTITLE12=Thanks For The Memory
TTITLE13=Cielito Lindo
TTITLE14=You Just Don't Care
TTITLE15=Never On A Sunday
TTITLE16=You've Changed
TTITLE17=The Breeze And I
TTITLE18=Exactly Like You
EXTD=
EXTT0=
EXTT1=
EXTT2=
EXTT3=
EXTT4=
EXTT5=
EXTT6=
EXTT7=
EXTT8=
EXTT9=
EXTT10=
EXTT11=
EXTT12=
EXTT13=
EXTT14=
EXTT15=
EXTT16=
EXTT17=
EXTT18=
PLAYORDER=
